# xmcd
#
# Track frame offsets: 
#        150
#        12175
#        24712
#        34560
#        47687
#        61592
#        73730
#        85570
#        97842
#        109180
#        120545
#        131152
#        144890
#        154230
#        164370
#        177205
#        188575
#        198040
#        208225
#        217030
#        226355
#        236085
#        246912
#        255760
#        266087
#        275025
#        284405
#        293805
#        303122
#        313632
#        325460
#        334065
#
# Disc length: 4590 seconds
#
# Revision: 1
# Processed by: cddbd v1.5.2PL0 Copyright (c) Steve Scherf et al.
# Submitted via: ExactAudioCopyFreeDBPlugin 1.0
#
DISCID=c911ec20
DTITLE=Webb Pierce - High Geared Daddy: Gonna Shake This Shack Tonight
DYEAR=2008
DGENRE=Country
TTITLE0=High Geared Daddy
TTITLE1=New Panhandle Rag
TTITLE2=Heebie Jeebie Blues
TTITLE3=Georgia Rag
TTITLE4=Freight Train Blues
TTITLE5=Hayride Boogie
TTITLE6=Have You Ever Had The Feeling
TTITLE7=Drifting Texas Sand
TTITLE8=You Scared The Love Right Out Of Me
TTITLE9=I'm Gonna See My Baby
TTITLE10=I Just Can't Be True
TTITLE11=California Blues
TTITLE12=In The Jailhouse Now
TTITLE13=Sneakin' Around Blues
TTITLE14=Love, Love, Love
TTITLE15=Why Baby Why (with Red Sovine)
TTITLE16=Any Old Time
TTITLE17=Teen Age Boogie
TTITLE18=I'm Tired
TTITLE19=Honky Tonk Song
TTITLE20=Bye Bye Love
TTITLE21=Who Wouldn't Love You
TTITLE22=New Panhandle Rag
TTITLE23=Holiday For Love
TTITLE24=The New Raunchy
TTITLE25=English Sweetheart
TTITLE26=You'll Come Back
TTITLE27=Tupelo County Jail
TTITLE28=After The Boy Gets The Girl
TTITLE29=Pick Me Up On Your Way Down
TTITLE30=I Ain't Never
TTITLE31=Teenage Boogie
EXTD=YEAR: 2008
EXTT0=
EXTT1=
EXTT2=
EXTT3=
EXTT4=
EXTT5=
EXTT6=
EXTT7=
EXTT8=
EXTT9=
EXTT10=
EXTT11=
EXTT12=
EXTT13=
EXTT14=
EXTT15=
EXTT16=
EXTT17=
EXTT18=
EXTT19=
EXTT20=
EXTT21=
EXTT22=
EXTT23=
EXTT24=
EXTT25=
EXTT26=
EXTT27=
EXTT28=
EXTT29=
EXTT30=
EXTT31=
PLAYORDER=
